<svg xmlns="http://www.w3.org/2000/svg" xml:space="preserve" id="_x32_" width="800" height="800" version="1.1" viewBox="0 0 512 512"><style>.st0{fill:#000}</style><path d="M502.65 394.055c-1.581-3.012-2.922-6.18-3.798-9.129-.884-2.942-1.293-5.646-1.289-7.849v-98.828c.015-12.047-2.52-23.551-7.372-33.632-3.618-7.565-8.497-14.272-14.182-19.919-8.544-8.484-18.813-14.547-29.7-18.479-10.906-3.932-22.486-5.788-34.218-5.788-2.319 0-4.643.079-6.963.22-6.378.409-12.283 1.644-17.827 3.232-8.304 2.406-15.848 5.638-22.643 8.886-6.774 3.255-12.802 6.558-17.563 9.113l23.378 43.438c6.57-3.546 13.824-7.486 20.763-10.474 3.448-1.486 6.782-2.721 9.723-3.57 2.945-.857 5.485-1.297 7.254-1.4a58.605 58.605 0 0 1 3.876-.126c5.764 0 11.162.834 15.774 2.28 3.468 1.094 6.492 2.516 9.004 4.144 3.774 2.477 6.39 5.269 8.257 8.61 1.832 3.366 3.082 7.455 3.114 13.462v3.586H420.11c-25.926 0-48.891 7.392-65.947 21.161-8.508 6.865-15.475 15.341-20.256 24.998-4.797 9.641-7.352 20.445-7.34 31.509-.012 10.734 2.21 21.028 6.381 30.173 6.24 13.761 16.777 24.73 29.362 31.957 12.602 7.258 27.243 10.946 42.498 10.954 10.746-.008 21.22-2.147 30.991-5.889a94.199 94.199 0 0 0 22.029-12.071 122.39 122.39 0 0 0 5.32 9.664c4.234 6.872 8.37 12.157 11.402 15.703l37.45-32.09c-2.084-2.404-6.224-7.814-9.35-13.846zm-54.411-33.852c-.539 2.242-1.376 4.474-2.56 6.732-3.283 6.306-9.408 12.59-16.957 17.009-7.522 4.458-16.274 6.943-23.914 6.912-11.374 0-20.724-3.696-26.822-9.059-3.074-2.698-5.406-5.803-7.05-9.405-1.635-3.617-2.626-7.785-2.638-12.888.011-4.772 1.038-8.996 2.995-12.966 2.953-5.93 8.15-11.466 16.258-15.774 8.076-4.285 19.03-7.195 32.558-7.187h28.128c.002 13.728.002 26.702.002 36.626zM183.798 72.006H145.29a35.877 35.877 0 0 0-34.179 24.778L0 436.275h58.76l35.166-107.478H202.52l27.365 107.478h74.585L218.648 99.088c-4.057-15.947-18.388-27.082-34.85-27.082zm-75.671 213.415 40.497-123.763h11.356l31.505 123.763h-83.358z" class="st0"/></svg>